<?xml version="1.0" encoding="UTF-8"?>
<svg version="1.1" xmlns="http://www.w3.org/2000/svg" width="428" height="88">
<path d="M0 0 C0.98750244 0.00565979 1.97500488 0.01131958 2.99243164 0.01715088 C6.12046518 0.03939131 9.24731761 0.08956473 12.375 0.140625 C14.50649378 0.16070593 16.63800566 0.1789539 18.76953125 0.1953125 C23.97175142 0.23921527 29.1732913 0.30600225 34.375 0.390625 C36.71544196 5.07150891 35.70098264 11.03410076 34.25 15.890625 C30.88533274 24.81633953 25.9273364 31.02567822 17.375 35.390625 C15.02257611 36.28247801 12.84474246 36.86514788 10.375 37.390625 C10.375 38.050625 10.375 38.710625 10.375 39.390625 C11.0040625 39.34421875 11.633125 39.2978125 12.28125 39.25 C18.58383879 38.98422818 23.18419156 39.66235381 28.375 43.390625 C33.31644179 48.71217769 33.72426364 52.29882416 33.65625 59.40625 C33.16205009 64.65026019 30.66861615 67.19651778 26.9375 70.640625 C21.04728367 74.66321176 16.01479512 74.67326538 9.078125 74.62109375 C8.08874939 74.62063553 7.09937378 74.62017731 6.08001709 74.6197052 C3.99555253 74.61669095 1.91109005 74.60882945 -0.17333984 74.59643555 C-3.37735896 74.57811151 -6.58109007 74.57592643 -9.78515625 74.57617188 C-11.80989835 74.57125901 -13.83463849 74.5654317 -15.859375 74.55859375 C-16.82284851 74.55748093 -17.78632202 74.5563681 -18.7789917 74.55522156 C-20.10607147 74.54565178 -20.10607147 74.54565178 -21.45996094 74.53588867 C-22.63313873 74.53017097 -22.63313873 74.53017097 -23.83001709 74.52433777 C-25.625 74.390625 -25.625 74.390625 -26.625 73.390625 C-26.34190144 64.47302048 -23.51179716 57.15734242 -17.375 50.578125 C-14.13172739 47.55533803 -10.59891357 45.49655412 -6.640625 43.53125 C-4.5928438 42.37242808 -3.19974741 41.1248405 -1.625 39.390625 C-2.47771484 39.24367188 -2.47771484 39.24367188 -3.34765625 39.09375 C-10.05431607 37.79496446 -15.1691752 36.04557073 -19.9375 30.890625 C-24.05250581 24.7943201 -24.51538832 19.70118175 -23.625 12.390625 C-21.60575778 6.56769394 -18.40723946 3.88533871 -12.99755859 1.24731445 C-8.72312842 -0.2961076 -4.49532986 -0.09841335 0 0 Z M3.375 38.390625 C3.375 38.720625 3.375 39.050625 3.375 39.390625 C5.025 39.390625 6.675 39.390625 8.375 39.390625 C8.375 39.060625 8.375 38.730625 8.375 38.390625 C6.725 38.390625 5.075 38.390625 3.375 38.390625 Z " fill="#9F77EC" transform="translate(28.625,7.609375)"/>
<path d="M0 0 C3.62833663 3.81930172 4.31000458 6.88279006 4.5 12 C4.31630179 17.11821229 3.56996587 20.14057744 0 24 C-6.41048557 29.9173713 -11.92376718 30.29344402 -20.296875 30.23046875 C-21.28625061 30.23001053 -22.27562622 30.22955231 -23.29498291 30.2290802 C-25.37944747 30.22606595 -27.46390995 30.21820445 -29.54833984 30.20581055 C-32.75235896 30.18748651 -35.95609007 30.18530143 -39.16015625 30.18554688 C-41.18489835 30.18063401 -43.20963849 30.1748067 -45.234375 30.16796875 C-46.19784851 30.16685593 -47.16132202 30.1657431 -48.1539917 30.16459656 C-49.03871155 30.15821671 -49.9234314 30.15183685 -50.83496094 30.14526367 C-52.00813873 30.13954597 -52.00813873 30.13954597 -53.20501709 30.13371277 C-55 30 -55 30 -56 29 C-55.71403373 19.99206261 -52.82350776 12.69378646 -46.625 6.0625 C-43.26350395 2.98538214 -40.41498859 1.2040878 -36 0 C-32.75 0.8125 -32.75 0.8125 -30 2 C-29.01 2 -28.02 2 -27 2 C-27 0.68 -27 -0.64 -27 -2 C-18.98791625 -7.34138916 -7.24607583 -5.82836534 0 0 Z " fill="#B76CF4" transform="translate(58,52)"/>
<path d="M0 0 C2.97 0 5.94 0 9 0 C9.33 8.91 9.66 17.82 10 27 C10.99 27.33 11.98 27.66 13 28 C13.53625 27.113125 14.0725 26.22625 14.625 25.3125 C17.70746877 20.7374674 21.23292476 17.71991954 26.375 15.625 C33.76033424 14.35166651 38.87275903 15.75806394 45 20 C49.33181253 24.44888854 50.88411527 28.64367712 51.1875 34.8125 C51 38 51 38 50 39 C48.00217874 39.15825258 45.99911166 39.25119171 43.99609375 39.31640625 C42.78115234 39.35830078 41.56621094 39.40019531 40.31445312 39.44335938 C39.03505859 39.48267578 37.75566406 39.52199219 36.4375 39.5625 C35.15423828 39.60568359 33.87097656 39.64886719 32.54882812 39.69335938 C29.36600147 39.799848 26.18309326 39.90185962 23 40 C24.21424329 43.66598271 24.21424329 43.66598271 26.8359375 46.328125 C29.32930336 47.10223859 31.04194437 47.07828132 33.625 46.75 C34.40101563 46.66234375 35.17703125 46.5746875 35.9765625 46.484375 C38.21325027 46.13545643 38.21325027 46.13545643 40 44 C42.3828125 43.8046875 42.3828125 43.8046875 45.125 43.875 C46.03507812 43.89304688 46.94515625 43.91109375 47.8828125 43.9296875 C48.58148438 43.95289063 49.28015625 43.97609375 50 44 C48.62523555 49.19355461 45.25658407 52.00427491 41 55 C35.06646813 56.97784396 28.36146881 57.00831235 22.625 54.375 C15.73478472 50.3169591 13.47608611 45.45185846 11.48046875 37.9765625 C11.32191406 37.32429688 11.16335937 36.67203125 11 36 C10.67 36 10.34 36 10 36 C9.67 42.27 9.34 48.54 9 55 C6.03 55 3.06 55 0 55 C-0.16795704 48.13166134 -0.32848059 41.26320384 -0.48217773 34.39453125 C-0.53548183 32.05887195 -0.5908017 29.72325774 -0.64819336 27.38769531 C-0.73042824 24.02679157 -0.80536554 20.66579135 -0.87890625 17.3046875 C-0.90594131 16.26384003 -0.93297638 15.22299255 -0.96083069 14.15060425 C-1.06025742 9.29924734 -1.05564444 4.76994896 0 0 Z M24.5 25.75 C22.72812808 28.13453456 22.72812808 28.13453456 22 32 C28.27 32 34.54 32 41 32 C39.68702878 26.01461763 39.68702878 26.01461763 36 24 C31.6830932 23.316291 28.13235522 23.20735135 24.5 25.75 Z " fill="#DCD1F0" transform="translate(176,15)"/>
<path d="M0 0 C0.66 0.515625 1.32 1.03125 2 1.5625 C2 2.2225 2 2.8825 2 3.5625 C2.66 3.5625 3.32 3.5625 4 3.5625 C4 2.9025 4 2.2425 4 1.5625 C9.31468683 -2.12825474 13.56065095 -2.87406604 20 -2.4375 C25.71733427 -0.69322853 28.15812289 1.31595763 31 6.5625 C32.11911712 9.91985137 32.11365586 12.44455386 32.09765625 15.98046875 C32.09443359 17.23408203 32.09121094 18.48769531 32.08789062 19.77929688 C32.07532227 21.74479492 32.07532227 21.74479492 32.0625 23.75 C32.05748317 25.08528481 32.05292059 26.42057141 32.04882812 27.75585938 C32.03702695 31.02478473 32.02056297 34.29361991 32 37.5625 C28.7 37.5625 25.4 37.5625 22 37.5625 C21.970271 36.45793457 21.970271 36.45793457 21.93994141 35.33105469 C21.84462172 31.99117944 21.73497004 28.65192361 21.625 25.3125 C21.5940625 24.15363281 21.563125 22.99476562 21.53125 21.80078125 C21.47324219 20.12822266 21.47324219 20.12822266 21.4140625 18.421875 C21.3826416 17.39545898 21.3512207 16.36904297 21.31884766 15.31152344 C20.99727907 12.53904083 20.60299654 10.84117246 19 8.5625 C15.08355188 7.61965138 11.83576122 7.18162596 8 8.5625 C7.02700338 11.87276609 6.80653218 14.97959908 6.68359375 18.421875 C6.62075195 20.09443359 6.62075195 20.09443359 6.55664062 21.80078125 C6.51732422 22.95964844 6.47800781 24.11851563 6.4375 25.3125 C6.37272461 27.07400391 6.37272461 27.07400391 6.30664062 28.87109375 C6.20065206 31.76811451 6.09858362 34.66521935 6 37.5625 C2.7 37.5625 -0.6 37.5625 -4 37.5625 C-4.01401855 36.41249512 -4.01401855 36.41249512 -4.02832031 35.23925781 C-4.08202773 31.76301897 -4.16567576 28.28812526 -4.25 24.8125 C-4.26417969 23.6059375 -4.27835937 22.399375 -4.29296875 21.15625 C-4.32519531 19.99609375 -4.35742188 18.8359375 -4.390625 17.640625 C-4.41157227 16.57231445 -4.43251953 15.50400391 -4.45410156 14.40332031 C-5.12741665 10.89943196 -6.15493026 9.66868951 -9 7.5625 C-12.63239813 7.3908633 -12.63239813 7.3908633 -16 8.5625 C-18.20263899 11.71535037 -18.29856194 14.64885672 -18.4140625 18.421875 C-18.47207031 20.09443359 -18.47207031 20.09443359 -18.53125 21.80078125 C-18.57765625 23.53908203 -18.57765625 23.53908203 -18.625 25.3125 C-18.68300781 27.07400391 -18.68300781 27.07400391 -18.7421875 28.87109375 C-18.8363982 31.76807268 -18.92201602 34.66504626 -19 37.5625 C-22.3 37.5625 -25.6 37.5625 -29 37.5625 C-29 24.6925 -29 11.8225 -29 -1.4375 C-25.7 -1.4375 -22.4 -1.4375 -19 -1.4375 C-18.67 -0.7775 -18.34 -0.1175 -18 0.5625 C-16.515 -0.2109375 -16.515 -0.2109375 -15 -1 C-9.6665334 -3.27805962 -5.23418031 -2.50804473 0 0 Z " fill="#E5D8F2" transform="translate(285,32.4375)"/>
<path d="M0 0 C1.629375 0.144375 3.25875 0.28875 4.9375 0.4375 C6.31228516 0.55931641 6.31228516 0.55931641 7.71484375 0.68359375 C10 1 10 1 11 2 C11.09353163 3.68801985 11.11744791 5.37995207 11.11352539 7.07055664 C11.11344986 8.15160172 11.11337433 9.23264679 11.11329651 10.34645081 C11.10813522 11.5224736 11.10297394 12.6984964 11.09765625 13.91015625 C11.0962413 15.10732773 11.09482635 16.30449921 11.09336853 17.53794861 C11.08774979 21.37949066 11.07519411 25.22097543 11.0625 29.0625 C11.05748741 31.65950437 11.05292409 34.25650965 11.04882812 36.85351562 C11.03777427 43.23569932 11.02049708 49.61783993 11 56 C7.7 56 4.4 56 1 56 C0.67 55.34 0.34 54.68 0 54 C-0.78375 54.495 -1.5675 54.99 -2.375 55.5 C-8.09389511 57.86643936 -13.37621384 57.85777624 -19.25 55.9375 C-23.95133758 52.62519398 -27.10536285 49.0226579 -29.4375 43.75 C-30.59945137 36.00365751 -30.06711559 29.16613017 -25.46484375 22.65625 C-21.4637011 18.13229138 -17.12220177 16.13916077 -11.1875 15.75 C-6.93638218 15.78921695 -3.09766018 16.90233982 0 20 C0 13.4 0 6.8 0 0 Z M-17 28 C-19.9657349 32.44860234 -19.64087636 36.78143535 -19 42 C-17.19881522 45.00197464 -16.09667268 46.45166366 -13 48 C-8.05233086 48.37340899 -4.88907017 48.22237243 -1 45 C1.29331853 41.0685968 1.39318905 37.48235521 1 33 C-0.20466635 29.80763418 -1.07706164 27.70016013 -3.8125 25.625 C-9.06600898 24.12399744 -12.63614754 24.72711066 -17 28 Z " fill="#E5D0F5" transform="translate(405,14)"/>
<path d="M0 0 C4.52687474 2.74815859 7.84155347 5.49902639 9.16015625 10.7734375 C9.31484375 11.8871875 9.31484375 11.8871875 9.47265625 13.0234375 C4.23629261 15.046578 4.23629261 15.046578 1.41015625 14.9609375 C-0.52734375 14.0234375 -0.52734375 14.0234375 -2.71484375 11.4609375 C-6.21785401 8.42499528 -8.07143908 8.52469737 -12.5390625 8.65234375 C-14.75237862 8.87155963 -14.75237862 8.87155963 -16.52734375 11.0234375 C-17.01455541 15.06986264 -17.01455541 15.06986264 -15.36328125 18.62890625 C-12.93907801 20.47026913 -10.81823013 20.81115004 -7.83984375 21.3984375 C-1.03610667 22.98817268 4.22196199 24.99906709 8.47265625 30.7109375 C10.09281732 36.07772103 10.84934132 41.12849336 8.37109375 46.33984375 C5.16324074 50.99723462 2.04053109 53.53867088 -3.52734375 55.0234375 C-9.96522593 55.76100174 -15.81144272 55.21311441 -21.52734375 52.0234375 C-25.39768188 48.84115948 -27.65048994 45.66618113 -29.52734375 41.0234375 C-29.52734375 39.7034375 -29.52734375 38.3834375 -29.52734375 37.0234375 C-26.22734375 37.0234375 -22.92734375 37.0234375 -19.52734375 37.0234375 C-19.09421875 37.9721875 -18.66109375 38.9209375 -18.21484375 39.8984375 C-16.73432174 43.22385687 -16.73432174 43.22385687 -13.52734375 45.0234375 C-9.21139664 45.7069945 -5.6547871 45.72137862 -1.90234375 43.3984375 C-0.28088569 41.03890769 -0.28088569 41.03890769 -0.46484375 37.9609375 C-1.81447124 34.22961443 -3.03421633 33.77486629 -6.52734375 32.0234375 C-8.48898209 31.47692453 -10.47085458 30.99910643 -12.46484375 30.5859375 C-18.53737382 29.14613614 -22.21098131 27.64864827 -26.40234375 22.8984375 C-28.41697381 17.74993845 -28.45876296 12.35198552 -26.40234375 7.2109375 C-19.59899585 -0.72630172 -10.19843137 -3.94066127 0 0 Z " fill="#E2DAF0" transform="translate(107.52734375,15.9765625)"/>
<path d="M0 0 C4.43593117 3.70989054 7.26147869 7.87497397 7.95703125 13.69140625 C8 15.875 8 15.875 7.6875 19.4375 C6.6875 20.4375 6.6875 20.4375 4.09545898 20.55102539 C2.96954346 20.54578857 1.84362793 20.54055176 0.68359375 20.53515625 C-0.53134766 20.53193359 -1.74628906 20.52871094 -2.99804688 20.52539062 C-4.27744141 20.51701172 -5.55683594 20.50863281 -6.875 20.5 C-8.15826172 20.49548828 -9.44152344 20.49097656 -10.76367188 20.48632812 C-13.94666022 20.47449545 -17.12955762 20.45801068 -20.3125 20.4375 C-18.19923474 25.14592624 -18.19923474 25.14592624 -14.3125 28.4375 C-12.08540474 28.53827776 -12.08540474 28.53827776 -9.75 28.1875 C-8.96496094 28.09984375 -8.17992187 28.0121875 -7.37109375 27.921875 C-5.10285966 27.57876274 -5.10285966 27.57876274 -3.3125 25.4375 C-0.9296875 25.2421875 -0.9296875 25.2421875 1.8125 25.3125 C2.72257812 25.33054687 3.63265625 25.34859375 4.5703125 25.3671875 C5.26898438 25.39039062 5.96765625 25.41359375 6.6875 25.4375 C5.31273555 30.63105461 1.94408407 33.44177491 -2.3125 36.4375 C-7.94242347 38.31414116 -13.498447 38.0025329 -19.125 36.25 C-24.17677837 33.37742014 -27.85239464 29.72672652 -30.3125 24.4375 C-31.86522676 17.15162828 -31.13613796 11.70747152 -27.5 5.1875 C-20.45757593 -3.66583312 -9.64954065 -6.58249334 0 0 Z M-18.875 7.75 C-20.54832613 10.37042627 -20.54832613 10.37042627 -20.3125 13.4375 C-14.3725 13.4375 -8.4325 13.4375 -2.3125 13.4375 C-2.84757175 8.70770868 -2.84757175 8.70770868 -4.8125 6.625 C-9.77618635 4.26724899 -14.71817113 3.99871541 -18.875 7.75 Z " fill="#D8CDED" transform="translate(149.3125,33.5625)"/>
<path d="M0 0 C4.55630234 2.21632243 6.73322305 5.77107331 8.40893555 10.47436523 C9.64003631 15.73489288 9.30256359 21.13036574 9.1875 26.5 C9.16719727 28.30597656 9.16719727 28.30597656 9.14648438 30.1484375 C9.11135352 33.09942973 9.06215996 36.04947412 9 39 C5.7 39 2.4 39 -1 39 C-1.01981934 38.26362305 -1.03963867 37.52724609 -1.06005859 36.76855469 C-1.15537828 33.42867944 -1.26502996 30.08942361 -1.375 26.75 C-1.4059375 25.59113281 -1.436875 24.43226562 -1.46875 23.23828125 C-1.50742187 22.12324219 -1.54609375 21.00820313 -1.5859375 19.859375 C-1.6173584 18.83295898 -1.6487793 17.80654297 -1.68115234 16.74902344 C-2.00423574 13.96348056 -2.36531467 12.27451601 -4 10 C-9.34893323 8.67474766 -9.34893323 8.67474766 -14.4375 10.125 C-17.30263631 13.56316357 -17.13913169 17.97021706 -17.31640625 22.30078125 C-17.35830078 23.27724609 -17.40019531 24.25371094 -17.44335938 25.25976562 C-17.48267578 26.26716797 -17.52199219 27.27457031 -17.5625 28.3125 C-17.60568359 29.33923828 -17.64886719 30.36597656 -17.69335938 31.42382812 C-17.79906738 33.94907489 -17.90000208 36.47452067 -18 39 C-21.3 39 -24.6 39 -28 39 C-28.02464849 33.60653012 -28.04283531 28.21309275 -28.05493164 22.81958008 C-28.05997231 20.98331125 -28.06680477 19.14704646 -28.07543945 17.31079102 C-28.08751672 14.67723599 -28.09323081 12.04373384 -28.09765625 9.41015625 C-28.10281754 8.58411392 -28.10797882 7.75807159 -28.11329651 6.90699768 C-28.11349205 4.93763632 -28.06204152 2.96838386 -28 1 C-26.41105928 -0.58894072 -24.75198576 -0.16998411 -22.5625 -0.1875 C-21.35787109 -0.20876953 -21.35787109 -0.20876953 -20.12890625 -0.23046875 C-18 0 -18 0 -16 2 C-15.21625 1.484375 -14.4325 0.96875 -13.625 0.4375 C-8.77036832 -1.48761256 -5.02153152 -1.3145798 0 0 Z " fill="#E4D4F2" transform="translate(364,31)"/>
<path d="M0 0 C0.721875 0.00257812 1.44375 0.00515625 2.1875 0.0078125 C2.909375 0.00523438 3.63125 0.00265625 4.375 0 C6.1875 0.1328125 6.1875 0.1328125 7.1875 1.1328125 C7.28103163 2.82083235 7.30494791 4.51276457 7.30102539 6.20336914 C7.30094986 7.28441422 7.30087433 8.36545929 7.30079651 9.47926331 C7.29563522 10.6552861 7.29047394 11.8313089 7.28515625 13.04296875 C7.2837413 14.24014023 7.28232635 15.43731171 7.28086853 16.67076111 C7.27524979 20.51230316 7.26269411 24.35378793 7.25 28.1953125 C7.24498741 30.79231687 7.24042409 33.38932215 7.23632812 35.98632812 C7.22527427 42.36851182 7.20799708 48.75065243 7.1875 55.1328125 C3.8875 55.1328125 0.5875 55.1328125 -2.8125 55.1328125 C-2.83713993 47.46069577 -2.85533123 39.78860185 -2.86743164 32.11645508 C-2.87247377 29.50414631 -2.87930725 26.89184039 -2.88793945 24.27954102 C-2.90001036 20.53400982 -2.90572935 16.78851578 -2.91015625 13.04296875 C-2.91531754 11.86694595 -2.92047882 10.69092316 -2.92579651 9.47926331 C-2.92590981 7.85769569 -2.92590981 7.85769569 -2.92602539 6.20336914 C-2.928246 5.24628555 -2.93046661 4.28920197 -2.93275452 3.30311584 C-2.783608 0.61138178 -2.69303878 0.19733474 0 0 Z " fill="#DED3F1" transform="translate(162.8125,14.8671875)"/>
<path d="M0 0 C0 2.97 0 5.94 0 9 C-3.63 9.66 -7.26 10.32 -11 11 C-11.8562384 14.4249536 -12.18646653 17.15081545 -12.31640625 20.640625 C-12.37924805 22.24550781 -12.37924805 22.24550781 -12.44335938 23.8828125 C-12.48267578 24.99398437 -12.52199219 26.10515625 -12.5625 27.25 C-12.60568359 28.37664063 -12.64886719 29.50328125 -12.69335938 30.6640625 C-12.79932015 33.44258954 -12.90139142 36.22120391 -13 39 C-16.3 39 -19.6 39 -23 39 C-23 26.13 -23 13.26 -23 0 C-19.7 0 -16.4 0 -13 0 C-12.67 0.66 -12.34 1.32 -12 2 C-11.01 1.34 -10.02 0.68 -9 0 C-2.50632911 -1.25316456 -2.50632911 -1.25316456 0 0 Z " fill="#D7C5F0" transform="translate(253,31)"/>
<path d="M0 0 C0.33 0.99 0.66 1.98 1 3 C2.96822886 4.96822886 6.34808709 4.66248381 9 5 C9.01417969 5.66386719 9.02835937 6.32773437 9.04296875 7.01171875 C9.28711371 11.53169983 9.53473638 14.31578879 12.125 18.125 C15.74176808 20.48376179 17.75350057 20.54046356 22 20 C24.94904851 19.12325585 25.7201112 18.4898054 27.25 15.8125 C28.77506363 10.09351138 28.13087622 5.46037032 26 0 C29 2 29 2 30 5 C30.0677819 7.77482159 29.99790265 10.53384692 29.9375 13.30859375 C29.89645135 15.91826933 29.89645135 15.91826933 30.52734375 18.05078125 C31.10675709 20.44026271 30.88409267 22.32018873 30.5625 24.75 C30.46066406 25.54921875 30.35882813 26.3484375 30.25390625 27.171875 C30.17011719 27.77515625 30.08632813 28.3784375 30 29 C29.34 28.34 28.68 27.68 28 27 C27.21625 27.495 26.4325 27.99 25.625 28.5 C19.90610489 30.86643936 14.62378616 30.85777624 8.75 28.9375 C4.04866242 25.62519398 0.89463715 22.0226579 -1.4375 16.75 C-2.23889561 11.40736258 -2.47431604 4.94863207 0 0 Z " fill="#D1B3ED" transform="translate(377,41)"/>
<path d="M0 0 C4.52687474 2.74815859 7.84155347 5.49902639 9.16015625 10.7734375 C9.31484375 11.8871875 9.31484375 11.8871875 9.47265625 13.0234375 C4.23629261 15.046578 4.23629261 15.046578 1.41015625 14.9609375 C-0.52734375 14.0234375 -0.52734375 14.0234375 -2.71484375 11.4609375 C-6.18062084 8.45726402 -7.92781657 8.52223826 -12.34375 8.65234375 C-14.71527871 9.05537636 -16.44184693 9.84591209 -18.52734375 11.0234375 C-18.52734375 13.0034375 -18.52734375 14.9834375 -18.52734375 17.0234375 C-19.49671875 17.1471875 -20.46609375 17.2709375 -21.46484375 17.3984375 C-22.47546875 17.6046875 -23.48609375 17.8109375 -24.52734375 18.0234375 C-24.85734375 18.6834375 -25.18734375 19.3434375 -25.52734375 20.0234375 C-26.18734375 20.0234375 -26.84734375 20.0234375 -27.52734375 20.0234375 C-28.09550477 9.18629203 -28.09550477 9.18629203 -24.52734375 5.0234375 C-17.82618932 -1.40307946 -8.93096181 -3.4509126 0 0 Z " fill="#EDEAF2" transform="translate(107.52734375,15.9765625)"/>
<path d="M0 0 C3.3 0 6.6 0 10 0 C10 12.87 10 25.74 10 39 C6.7 39 3.4 39 0 39 C0 26.13 0 13.26 0 0 Z " fill="#D2BAEE" transform="translate(322,31)"/>
<path d="M0 0 C4.42930708 3.70435063 7.32451737 7.89236962 7.921875 13.7265625 C7.93533932 15.63176319 7.82324332 17.53709354 7.6875 19.4375 C7.0275 19.4375 6.3675 19.4375 5.6875 19.4375 C5.0275 15.8075 4.3675 12.1775 3.6875 8.4375 C3.0275 9.0975 2.3675 9.7575 1.6875 10.4375 C-0.6875 10.8125 -0.6875 10.8125 -3.3125 10.4375 C-3.89 9.7775 -4.4675 9.1175 -5.0625 8.4375 C-8.10420639 5.73376098 -10.29034681 5.86724444 -14.25390625 6.04296875 C-16.49545107 6.28758251 -16.49545107 6.28758251 -18.3125 8.25 C-19.40485761 10.53653406 -19.40485761 10.53653406 -20.3125 13.4375 C-14.0425 13.4375 -7.7725 13.4375 -1.3125 13.4375 C-0.9825 12.7775 -0.6525 12.1175 -0.3125 11.4375 C-0.6425 12.7575 -0.9725 14.0775 -1.3125 15.4375 C-7.9125 15.4375 -14.5125 15.4375 -21.3125 15.4375 C-21.6425 13.7875 -21.9725 12.1375 -22.3125 10.4375 C-24.25853274 9.84679986 -24.25853274 9.84679986 -26.3125 9.4375 C-26.6425 9.7675 -26.9725 10.0975 -27.3125 10.4375 C-27.9609375 8.66015625 -27.9609375 8.66015625 -28.3125 6.4375 C-26.13468233 2.0345208 -22.53072195 -0.83461483 -18 -2.5625 C-11.30996819 -4.34725681 -5.79638675 -3.92866213 0 0 Z " fill="#E7E0F2" transform="translate(149.3125,33.5625)"/>
<path d="M0 0 C5.45703068 5.604518 6 10.24532033 6 18 C-3.57 18 -13.14 18 -23 18 C-23 17.67 -23 17.34 -23 17 C-14.09 17 -5.18 17 4 17 C4 15.02 4 13.04 4 11 C3.04996094 11.49113281 2.09992188 11.98226562 1.12109375 12.48828125 C-3.54442214 14.48778806 -7.93587511 14.33583716 -12.9375 14.1875 C-14.24944336 14.16719727 -14.24944336 14.16719727 -15.58789062 14.14648438 C-17.72553086 14.11144109 -19.86284984 14.05764541 -22 14 C-22 13.67 -22 13.34 -22 13 C-13.585 12.505 -13.585 12.505 -5 12 C-5.66 10.02 -6.32 8.04 -7 6 C-9.64458379 4.67770811 -11.67761301 4.90322806 -14.625 4.9375 C-16.12933594 4.95103516 -16.12933594 4.95103516 -17.6640625 4.96484375 C-18.43492187 4.97644531 -19.20578125 4.98804688 -20 5 C-20.28875 5.639375 -20.5775 6.27875 -20.875 6.9375 C-22 9 -22 9 -24 10 C-23.34 8.35 -22.68 6.7 -22 5 C-24.97 4.505 -24.97 4.505 -28 4 C-26.49048817 -0.22663314 -23.8148346 -1.83078032 -20 -4 C-12.66024061 -6.51097032 -6.05366972 -4.19100211 0 0 Z " fill="#E9E1F4" transform="translate(221,35)"/>
<path d="M0 0 C3.3 0 6.6 0 10 0 C10.433125 0.94875 10.86625 1.8975 11.3125 2.875 C12.79302201 6.20041937 12.79302201 6.20041937 16 8 C19.04488327 8.48224671 21.95205061 8.45829674 25 8 C27.80684139 5.91286153 29.05450926 3.91823611 31 1 C31.33 2.65 31.66 4.3 32 6 C33.32 6 34.64 6 36 6 C35.82474344 8.36596356 35.34023014 9.68251505 33.59765625 11.30859375 C33.04980469 11.74300781 32.50195312 12.17742187 31.9375 12.625 C30.4834375 13.800625 30.4834375 13.800625 29 15 C29 15.66 29 16.32 29 17 C22.65027381 19.1165754 15.87580056 18.61954903 9.75 15.9765625 C4.79129401 13.20942746 2.08763272 9.16414409 0 4 C0 2.68 0 1.36 0 0 Z " fill="#D0C2EB" transform="translate(78,53)"/>
<path d="M0 0 C0.99 1.485 0.99 1.485 2 3 C2.94875 2.814375 3.8975 2.62875 4.875 2.4375 C8 2 8 2 10 3 C10 3.66 10 4.32 10 5 C9.01 5.495 9.01 5.495 8 6 C8.32597168 6.52561523 8.65194336 7.05123047 8.98779297 7.59277344 C10.29239664 10.69537648 10.22587839 13.15337696 10.1953125 16.515625 C10.18564453 18.39121094 10.18564453 18.39121094 10.17578125 20.3046875 C10.15902344 21.60664062 10.14226562 22.90859375 10.125 24.25 C10.11597656 25.56742188 10.10695313 26.88484375 10.09765625 28.2421875 C10.07408533 31.49497462 10.04118022 34.74739589 10 38 C6.7 38 3.4 38 0 38 C0 25.46 0 12.92 0 0 Z " fill="#D3C0EE" transform="translate(256,32)"/>
<path d="M0 0 C2.64 0.66 5.28 1.32 8 2 C8 5.37059006 7.91329101 8.71107916 7.78125 12.078125 C7.73613281 13.23828125 7.69101562 14.3984375 7.64453125 15.59375 C7.59683594 16.8003125 7.54914063 18.006875 7.5 19.25 C7.45230469 20.47203125 7.40460938 21.6940625 7.35546875 22.953125 C7.23766982 25.96877773 7.11915357 28.98440054 7 32 C3.7 32 0.4 32 -3 32 C-3.01458252 31.23856689 -3.02916504 30.47713379 -3.04418945 29.69262695 C-3.11880541 26.23208112 -3.21542259 22.77248555 -3.3125 19.3125 C-3.33505859 18.11431641 -3.35761719 16.91613281 -3.38085938 15.68164062 C-3.41630859 14.52470703 -3.45175781 13.36777344 -3.48828125 12.17578125 C-3.51446533 11.11270752 -3.54064941 10.04963379 -3.56762695 8.9543457 C-4.0490574 5.66479753 -5.11822044 3.70985019 -7 1 C-6.401875 1.350625 -5.80375 1.70125 -5.1875 2.0625 C-2.89186786 3.33304698 -2.89186786 3.33304698 0 2 C0 1.34 0 0.68 0 0 Z " fill="#D8C8ED" transform="translate(284,38)"/>
<path d="M0 0 C3.81087105 1.27029035 4.83853552 2.64547837 7 6 C7.45410156 9.13793945 7.45410156 9.13793945 7.390625 12.61328125 C7.37773437 13.86044922 7.36484375 15.10761719 7.3515625 16.39257812 C7.31804687 17.68615234 7.28453125 18.97972656 7.25 20.3125 C7.22292969 22.28186523 7.22292969 22.28186523 7.1953125 24.29101562 C7.14822786 27.52808488 7.08247042 30.76367053 7 34 C3.7 34 0.4 34 -3 34 C-3.33 24.76 -3.66 15.52 -4 6 C-3.34 6 -2.68 6 -2 6 C-1.34 4.02 -0.68 2.04 0 0 Z " fill="#DAC9EE" transform="translate(310,36)"/>
<path d="M0 0 C1.32 0 2.64 0 4 0 C4 0.66 4 1.32 4 2 C4.66 2.33 5.32 2.66 6 3 C6.33 3.99 6.66 4.98 7 6 C7.33 6 7.66 6 8 6 C7.67 14.91 7.34 23.82 7 33 C3.7 33 0.4 33 -3 33 C-3.05434116 30.4580411 -3.0938339 27.91726318 -3.125 25.375 C-3.14175781 24.66214844 -3.15851563 23.94929688 -3.17578125 23.21484375 C-3.21707313 18.71402877 -2.62446556 15.25806881 -1 11 C-0.35108701 7.23630464 0 3.82416157 0 0 Z " fill="#D8BEF3" transform="translate(339,37)"/>
<path d="M0 0 C4 4.75 4 4.75 4 7 C8.82771781 8.55732833 13.29464681 7.58077681 18 6 C18.66 5.34 19.32 4.68 20 4 C22.3828125 3.8046875 22.3828125 3.8046875 25.125 3.875 C26.03507812 3.89304688 26.94515625 3.91109375 27.8828125 3.9296875 C28.58148438 3.95289063 29.28015625 3.97609375 30 4 C28.62523555 9.19355461 25.25658407 12.00427491 21 15 C15.37007653 16.87664116 9.814053 16.5650329 4.1875 14.8125 C-0.22391276 12.30404961 -3.36969056 9.89092832 -5 5 C-3.35 3.35 -1.7 1.7 0 0 Z " fill="#D1C2EF" transform="translate(126,55)"/>
<path d="M0 0 C2.31 0.66 4.62 1.32 7 2 C6.814375 2.61875 6.62875 3.2375 6.4375 3.875 C5.76313824 6.04160178 5.76313824 6.04160178 7 8 C9.77077198 8.16774403 12.54160927 8.33423936 15.3125 8.5 C16.49102539 8.57154297 16.49102539 8.57154297 17.69335938 8.64453125 C18.8293457 8.71220703 18.8293457 8.71220703 19.98828125 8.78125 C21.03302612 8.8440918 21.03302612 8.8440918 22.09887695 8.90820312 C25.87771687 9.09066669 29.28290086 8.66081762 33 8 C32.979375 8.94875 32.95875 9.8975 32.9375 10.875 C32.77448174 13.90666283 32.77448174 13.90666283 34 16 C20.635 16.495 20.635 16.495 7 17 C8.3909864 21.91485814 8.3909864 21.91485814 11.125 23.3125 C11.74375 23.539375 12.3625 23.76625 13 24 C13 24.66 13 25.32 13 26 C10.33518465 25.33379616 8.49966322 24.70931212 6.8828125 22.4140625 C6.21004386 21.1780457 5.55114571 19.93437938 4.90625 18.68359375 C3.42456409 15.93097898 1.76612979 14.38306489 -1 13 C-1 13.99 -1 14.98 -1 16 C-1.66 16 -2.32 16 -3 16 C-2.88590318 13.89521396 -2.75834639 11.79115423 -2.625 9.6875 C-2.55539063 8.51574219 -2.48578125 7.34398437 -2.4140625 6.13671875 C-2 3 -2 3 0 0 Z " fill="#DACFEF" transform="translate(192,38)"/>
<path d="M0 0 C0.98750244 0.00565979 1.97500488 0.01131958 2.99243164 0.01715088 C6.12046518 0.03939131 9.24731761 0.08956473 12.375 0.140625 C14.50649378 0.16070593 16.63800566 0.1789539 18.76953125 0.1953125 C23.97175142 0.23921527 29.1732913 0.30600225 34.375 0.390625 C36.78314828 5.20692156 35.64405576 11.19722821 34.0625 16.140625 C32.83869427 19.46821106 31.37107825 22.4440333 29.375 25.390625 C28.1467603 21.70590589 29.10624393 20.7920494 30.66015625 17.43359375 C31.89790093 13.89621416 32.13798881 10.06344367 31.375 6.390625 C30.385 5.730625 29.395 5.070625 28.375 4.390625 C28.375 3.730625 28.375 3.070625 28.375 2.390625 C22.91205568 2.48434732 17.44954474 2.59048324 11.98706055 2.70800781 C10.12970544 2.74623366 8.27227792 2.78109763 6.41479492 2.8125 C3.74111088 2.85828961 1.06792258 2.91626079 -1.60546875 2.9765625 C-2.43273972 2.98811371 -3.26001068 2.99966492 -4.11235046 3.01156616 C-8.33274996 3.11901699 -11.84066783 3.3027488 -15.625 5.390625 C-17.36038192 7.78287459 -17.36038192 7.78287459 -18.625 10.390625 C-19.615 11.875625 -19.615 11.875625 -20.625 13.390625 C-21.39979618 19.80030253 -20.94184039 24.76641739 -17.625 30.390625 C-17.955 31.050625 -18.285 31.710625 -18.625 32.390625 C-23.10655174 26.94874074 -24.43944305 22.33901698 -24.1015625 15.296875 C-23.37491522 10.86551784 -21.95934584 7.44710869 -18.625 4.390625 C-12.51284675 0.35739801 -7.19018964 -0.15741017 0 0 Z M28.375 5.390625 C30.375 6.390625 30.375 6.390625 30.375 6.390625 Z " fill="#A18DE4" transform="translate(28.625,7.609375)"/>
<path d="M0 0 C0 2.97 0 5.94 0 9 C-3.63 9.66 -7.26 10.32 -11 11 C-11.33 11.99 -11.66 12.98 -12 14 C-12.66 14 -13.32 14 -14 14 C-17 8.25 -17 8.25 -17 6 C-17.66 6 -18.32 6 -19 6 C-19 6.99 -19 7.98 -19 9 C-19.66 9 -20.32 9 -21 9 C-21 10.65 -21 12.3 -21 14 C-21.33 14 -21.66 14 -22 14 C-22.33 9.38 -22.66 4.76 -23 0 C-19.7 0 -16.4 0 -13 0 C-12.67 0.66 -12.34 1.32 -12 2 C-11.01 1.34 -10.02 0.68 -9 0 C-2.50632911 -1.25316456 -2.50632911 -1.25316456 0 0 Z " fill="#E6DDF1" transform="translate(253,31)"/>
<path d="M0 0 C0.33 0 0.66 0 1 0 C1 8.58 1 17.16 1 26 C-2.3 26 -5.6 26 -9 26 C-9 18.08 -9 10.16 -9 2 C-5.535 1.505 -5.535 1.505 -2 1 C-1.67 1.33 -1.34 1.66 -1 2 C-0.67 1.34 -0.34 0.68 0 0 Z " fill="#CDB0E9" transform="translate(372,44)"/>
<path d="M0 0 C1.9375 0.375 1.9375 0.375 4 1 C5.27861615 3.55723229 5.11336609 5.36737102 5.09765625 8.2265625 C5.09282227 9.7734375 5.09282227 9.7734375 5.08789062 11.3515625 C5.07951172 12.43179688 5.07113281 13.51203125 5.0625 14.625 C5.05798828 15.71296875 5.05347656 16.8009375 5.04882812 17.921875 C5.03701776 20.61463789 5.02054778 23.30729188 5 26 C3.02 26 1.04 26 -1 26 C-1.02892857 22.04168191 -1.04677427 18.08339083 -1.0625 14.125 C-1.07087891 12.99707031 -1.07925781 11.86914062 -1.08789062 10.70703125 C-1.09111328 9.63066406 -1.09433594 8.55429687 -1.09765625 7.4453125 C-1.10289307 6.45031738 -1.10812988 5.45532227 -1.11352539 4.43017578 C-1 2 -1 2 0 0 Z " fill="#D5B8F3" transform="translate(310,43)"/>
<path d="M0 0 C3.5578139 1.56543812 4.90441177 3.24972768 7.125 6.375 C7.455 6.375 7.785 6.375 8.125 6.375 C8.125 11.655 8.125 16.935 8.125 22.375 C7.795 22.375 7.465 22.375 7.125 22.375 C6.795 19.075 6.465 15.775 6.125 12.375 C4.805 12.705 3.485 13.035 2.125 13.375 C1.795 19.645 1.465 25.915 1.125 32.375 C0.795 32.375 0.465 32.375 0.125 32.375 C0.10518066 31.79532471 0.08536133 31.21564941 0.06494141 30.6184082 C-0.03072601 27.97434063 -0.14023453 25.3310183 -0.25 22.6875 C-0.2809375 21.77548828 -0.311875 20.86347656 -0.34375 19.92382812 C-0.54276954 15.36296369 -0.73190122 11.51309725 -2.875 7.375 C-1.555 7.375 -0.235 7.375 1.125 7.375 C0.795 6.715 0.465 6.055 0.125 5.375 C-0.865 5.87 -0.865 5.87 -1.875 6.375 C-4 5.9375 -4 5.9375 -5.875 5.375 C-5.875 4.715 -5.875 4.055 -5.875 3.375 C-6.865 3.375 -7.855 3.375 -8.875 3.375 C-8.545 2.385 -8.215 1.395 -7.875 0.375 C-6.885 0.375 -5.895 0.375 -4.875 0.375 C-2.875 -0.625 -2.875 -0.625 0 0 Z " fill="#E4CFF4" transform="translate(363.875,33.625)"/>
<path d="M0 0 C0.99 0.33 1.98 0.66 3 1 C3.33 3.64 3.66 6.28 4 9 C23.305 9.495 23.305 9.495 43 10 C43 10.66 43 11.32 43 12 C36.60962769 12.02527062 30.21926817 12.04283317 23.82885742 12.05493164 C21.65307127 12.05997308 19.47728853 12.06680607 17.30151367 12.07543945 C14.18146933 12.08751338 11.06146962 12.09323005 7.94140625 12.09765625 C6.47266808 12.10539818 6.47266808 12.10539818 4.97425842 12.11329651 C4.07340012 12.11337204 3.17254181 12.11344757 2.24438477 12.11352539 C1.04858543 12.11685631 1.04858543 12.11685631 -0.17137146 12.12025452 C-2 12 -2 12 -3 11 C-2.91062197 9.47480724 -2.75462854 7.95318071 -2.5625 6.4375 C-2.46066406 5.61121094 -2.35882813 4.78492187 -2.25390625 3.93359375 C-2.17011719 3.29550781 -2.08632813 2.65742187 -2 2 C-1.34 2 -0.68 2 0 2 C0 1.34 0 0.68 0 0 Z " fill="#C971E9" transform="translate(5,70)"/>
<path d="M0 0 C0 7.26 0 14.52 0 22 C-1.98 22 -3.96 22 -6 22 C-6.14515677 18.89632503 -6.23400853 15.79351973 -6.3125 12.6875 C-6.35439453 11.80642578 -6.39628906 10.92535156 -6.43945312 10.01757812 C-6.48576699 7.58146889 -6.48138916 5.38969173 -6 3 C-2.49907236 0 -2.49907236 0 0 0 Z " fill="#D1B7F2" transform="translate(289,47)"/>
<path d="M0 0 C3 2 3 2 3.6875 5.125 C3.790625 6.07375 3.89375 7.0225 4 8 C4.66 7.01 5.32 6.02 6 5 C6.61724743 10.57808785 6.66838019 14.83684249 3.375 19.5625 C1.05262088 22.31064862 0.19273793 22.94289246 -3.375 24 C-4.24125 24 -5.1075 24 -6 24 C-5.236875 23.401875 -4.47375 22.80375 -3.6875 22.1875 C0.63210213 18.78488452 0.63210213 18.78488452 3 14 C2.38125 14.20625 1.7625 14.4125 1.125 14.625 C0.42375 14.74875 -0.2775 14.8725 -1 15 C-3.40616633 12.59383367 -3.375933 11.27635178 -4 8 C-4.99083967 5.76591887 -4.99083967 5.76591887 -6 4 C-4.7934375 3.566875 -4.7934375 3.566875 -3.5625 3.125 C-0.8673532 2.26737432 -0.8673532 2.26737432 0 0 Z " fill="#D8CCEC" transform="translate(111,45)"/>
<path d="M0 0 C2.68069828 0.96230195 3.93003317 1.44630344 5.4375 3.875 C5.21419287 7.52234979 5.05377165 9.25872835 2.4375 11.875 C-1 12.25 -1 12.25 -4.5625 11.875 C-6.5625 10.1875 -6.5625 10.1875 -7.5625 7.875 C-7.48446617 4.67561304 -6.99995759 3.34370456 -4.8125 1 C-2.5625 -0.125 -2.5625 -0.125 0 0 Z " fill="#F3EBF5" transform="translate(327.5625,14.125)"/>
<path d="M0 0 C3.3 0 6.6 0 10 0 C8.62523555 5.19355461 5.25658407 8.00427491 1 11 C-5.26124037 13.08708012 -11.944416 12.54971958 -18 10 C-17.34 9.01 -16.68 8.02 -16 7 C-15.34 7.66 -14.68 8.32 -14 9 C-10.87185486 9.24360073 -10.87185486 9.24360073 -7.375 9.125 C-6.18648437 9.10695313 -4.99796875 9.08890625 -3.7734375 9.0703125 C-2.40058594 9.03550781 -2.40058594 9.03550781 -1 9 C-1 7.68 -1 6.36 -1 5 C-1.99 4.67 -2.98 4.34 -4 4 C-3.34 4 -2.68 4 -2 4 C-1.34 2.68 -0.68 1.36 0 0 Z " fill="#CEBDEE" transform="translate(146,59)"/>
<path d="M0 0 C0.66 0.33 1.32 0.66 2 1 C2.6328125 3.72265625 2.6328125 3.72265625 3.125 7.0625 C3.29257813 8.16722656 3.46015625 9.27195312 3.6328125 10.41015625 C3.75398438 11.26480469 3.87515625 12.11945312 4 13 C0.0833957 13.0580966 -3.83309763 13.09362893 -7.75 13.125 C-8.86117187 13.14175781 -9.97234375 13.15851562 -11.1171875 13.17578125 C-12.72207031 13.18544922 -12.72207031 13.18544922 -14.359375 13.1953125 C-15.34389648 13.20578613 -16.32841797 13.21625977 -17.34277344 13.22705078 C-20 13 -20 13 -24 11 C-18.06 10.67 -12.12 10.34 -6 10 C-5.34 8.68 -4.68 7.36 -4 6 C-4.33 5.01 -4.66 4.02 -5 3 C-4.01 3 -3.02 3 -2 3 C-1.67 2.34 -1.34 1.68 -1 1 C-0.67 0.67 -0.34 0.34 0 0 Z " fill="#E0D6F2" transform="translate(152,41)"/>
<path d="M0 0 C0.66 0.33 1.32 0.66 2 1 C1.67 2.32 1.34 3.64 1 5 C2.65 5.33 4.3 5.66 6 6 C5.25 10.75 5.25 10.75 3 13 C2.53837573 15.43252661 2.53837573 15.43252661 2.375 18.125 C2.30023438 19.03507812 2.22546875 19.94515625 2.1484375 20.8828125 C2.09945313 21.58148438 2.05046875 22.28015625 2 23 C1.67 23 1.34 23 1 23 C0.67 20.03 0.34 17.06 0 14 C-1.32 13.67 -2.64 13.34 -4 13 C-4.33 16.3 -4.66 19.6 -5 23 C-5.33 23 -5.66 23 -6 23 C-6.47757848 6.84192825 -6.47757848 6.84192825 -1.875 1.5625 C-0.946875 0.7890625 -0.946875 0.7890625 0 0 Z " fill="#E2CCF5" transform="translate(383,33)"/>
<path d="M0 0 C2.31 0.66 4.62 1.32 7 2 C6.814375 2.61875 6.62875 3.2375 6.4375 3.875 C5.76313824 6.04160178 5.76313824 6.04160178 7 8 C12.61 8.33 18.22 8.66 24 9 C24 9.33 24 9.66 24 10 C18.39 10 12.78 10 7 10 C6.67 10.66 6.34 11.32 6 12 C4.68 11.67 3.36 11.34 2 11 C2 10.34 2 9.68 2 9 C1.34 9 0.68 9 0 9 C-0.33 11.31 -0.66 13.62 -1 16 C-1.66 16 -2.32 16 -3 16 C-2.88590318 13.89521396 -2.75834639 11.79115423 -2.625 9.6875 C-2.55539063 8.51574219 -2.48578125 7.34398437 -2.4140625 6.13671875 C-2 3 -2 3 0 0 Z " fill="#E0D6F1" transform="translate(192,38)"/>
<path d="M0 0 C1.7290774 -0.02725341 3.45828176 -0.04650987 5.1875 -0.0625 C6.15042969 -0.07410156 7.11335938 -0.08570313 8.10546875 -0.09765625 C10.85576513 -0.00486622 13.32479591 0.37888315 16 1 C15.34 2.65 14.68 4.3 14 6 C13.01 6 12.02 6 11 6 C10.67 6.66 10.34 7.32 10 8 C6.7 7.67 3.4 7.34 0 7 C0.66 5.68 1.32 4.36 2 3 C1.34 2.01 0.68 1.02 0 0 Z " fill="#F8F4F9" transform="translate(93,16)"/>
<path d="M0 0 C0.33 0 0.66 0 1 0 C1.12375 0.804375 1.2475 1.60875 1.375 2.4375 C1.684375 3.7059375 1.684375 3.7059375 2 5 C2.66 5.33 3.32 5.66 4 6 C3.67 8.64 3.34 11.28 3 14 C2.67 14 2.34 14 2 14 C1.67 19.94 1.34 25.88 1 32 C-1.31 32 -3.62 32 -6 32 C-6 31.34 -6 30.68 -6 30 C-4.68 30.33 -3.36 30.66 -2 31 C-2 25.39 -2 19.78 -2 14 C-1.34 14 -0.68 14 0 14 C0 9.38 0 4.76 0 0 Z " fill="#D3CAE3" transform="translate(184,37)"/>
<path d="M0 0 C6.15234375 -0.09765625 6.15234375 -0.09765625 8 0 C10.50686677 2.50686677 9.17350951 8.74695445 9.18554688 12.26757812 C9.18542603 13.38628296 9.18542603 13.38628296 9.18530273 14.52758789 C9.18748093 16.79267389 9.20560895 19.05726644 9.22460938 21.32226562 C9.22754492 22.76301917 9.22952864 24.20377502 9.23046875 25.64453125 C9.23457764 26.95784424 9.23868652 28.27115723 9.24291992 29.62426758 C9 33 9 33 7 37 C6.67 25.78 6.34 14.56 6 3 C4.68 3.33 3.36 3.66 2 4 C1.34 2.68 0.68 1.36 0 0 Z " fill="#F2ECFA" transform="translate(161,15)"/>
<path d="M0 0 C3.642058 1.21401933 5.06345865 2.6198338 7.1875 5.75 C8 8 8 8 8 15 C-1.57 15 -11.14 15 -21 15 C-21 14.67 -21 14.34 -21 14 C-12.09 14 -3.18 14 6 14 C6 12.02 6 10.04 6 8 C4.35 8.66 2.7 9.32 1 10 C0.87625 9.195625 0.7525 8.39125 0.625 7.5625 C0.41875 6.716875 0.2125 5.87125 0 5 C-0.66 4.67 -1.32 4.34 -2 4 C-1 1 -1 1 0 0 Z " fill="#E3D9F4" transform="translate(219,38)"/>
<path d="M0 0 C1.65 0 3.3 0 5 0 C5 0.66 5 1.32 5 2 C7.31 2 9.62 2 12 2 C12 2.33 12 2.66 12 3 C10.75283203 3.00386719 10.75283203 3.00386719 9.48046875 3.0078125 C6.21814355 3.12390948 3.192901 3.3092908 0 4 C-2.39248595 6.85602535 -2.39248595 6.85602535 -3 10 C-5.31 9.67 -7.62 9.34 -10 9 C-10 8.34 -10 7.68 -10 7 C-11.32 7.33 -12.64 7.66 -14 8 C-12.49336217 4.98672434 -9.96833589 4.38943382 -7 3 C-7 2.34 -7 1.68 -7 1 C-4.69 1 -2.38 1 0 1 C0 0.67 0 0.34 0 0 Z " fill="#A870E7" transform="translate(34,45)"/>
<path d="M0 0 C4.29 0.33 8.58 0.66 13 1 C13 2.32 13 3.64 13 5 C14.32 5 15.64 5 17 5 C17 5.66 17 6.32 17 7 C11.72 7 6.44 7 1 7 C0.34 5.35 -0.32 3.7 -1 2 C-0.67 1.34 -0.34 0.68 0 0 Z " fill="#CDB9EF" transform="translate(197,62)"/>
<path d="M0 0 C3 2 3 2 4 5 C4.0677819 7.77482159 3.99790265 10.53384692 3.9375 13.30859375 C3.89645135 15.91826933 3.89645135 15.91826933 4.52734375 18.05078125 C5.10675709 20.44026271 4.88409267 22.32018873 4.5625 24.75 C4.46066406 25.54921875 4.35882813 26.3484375 4.25390625 27.171875 C4.17011719 27.77515625 4.08632813 28.3784375 4 29 C3.67 29 3.34 29 3 29 C3 27.35 3 25.7 3 24 C1.68 24.33 0.36 24.66 -1 25 C-1.99 23.35 -2.98 21.7 -4 20 C-3.38125 19.773125 -2.7625 19.54625 -2.125 19.3125 C0.73664583 17.54501287 1.13870483 16.22985688 2 13 C2.351888 8.16154001 1.76061458 4.51157487 0 0 Z " fill="#C7A8E4" transform="translate(403,41)"/>
<path d="M0 0 C0 0.66 0 1.32 0 2 C-0.763125 2.226875 -1.52625 2.45375 -2.3125 2.6875 C-5.59530473 4.29073022 -6.35917351 5.79648162 -8 9 C-8.99 10.485 -8.99 10.485 -10 12 C-10.77479618 18.40967753 -10.31684039 23.37579239 -7 29 C-7.33 29.66 -7.66 30.32 -8 31 C-12.48318395 25.55613377 -13.79985569 20.95173849 -13.48828125 13.91015625 C-12.52991372 8.19828575 -9.92884746 4.46959806 -5.375 1 C-3 0 -3 0 0 0 Z " fill="#A285DA" transform="translate(18,9)"/>
<path d="M0 0 C3.3 0 6.6 0 10 0 C10.05392397 2.77109307 10.09363455 5.54113818 10.125 8.3125 C10.14175781 9.09818359 10.15851563 9.88386719 10.17578125 10.69335938 C10.18222656 11.45068359 10.18867188 12.20800781 10.1953125 12.98828125 C10.20578613 13.68477783 10.21625977 14.38127441 10.22705078 15.09887695 C10 17 10 17 8 20 C7.67 14.72 7.34 9.44 7 4 C4.525 3.01 4.525 3.01 2 2 C2 5.96 2 9.92 2 14 C1.67 14 1.34 14 1 14 C0.67 9.38 0.34 4.76 0 0 Z " fill="#EAE0F4" transform="translate(322,31)"/>
<path d="M0 0 C0 0.66 0 1.32 0 2 C-6.75 0.125 -6.75 0.125 -9 -1 C-15.83645977 -0.42179196 -21.30817929 1.20545286 -27 5 C-25.49048817 0.77336686 -22.8148346 -0.83078032 -19 -3 C-12.32420292 -5.28382532 -5.88668751 -3.38484532 0 0 Z " fill="#F0ECF5" transform="translate(220,34)"/>
<path d="M0 0 C0.99 0.66 1.98 1.32 3 2 C2.67 2.99 2.34 3.98 2 5 C1.34 4.67 0.68 4.34 0 4 C-2.94064918 2.84474497 -3.93063951 2.97543483 -7 4.0625 C-10 5 -10 5 -12.1875 4.0625 C-12.785625 3.711875 -13.38375 3.36125 -14 3 C-14.99 3.33 -15.98 3.66 -17 4 C-17.33 3.34 -17.66 2.68 -18 2 C-11.81893674 -0.58640236 -6.5942946 -1.76112687 0 0 Z " fill="#EFEBF5" transform="translate(145,31)"/>
<path d="M0 0 C1.98 0 3.96 0 6 0 C6 0.99 6 1.98 6 3 C6.9590625 3.1546875 6.9590625 3.1546875 7.9375 3.3125 C8.618125 3.539375 9.29875 3.76625 10 4 C10.33 4.99 10.66 5.98 11 7 C10.34 7.66 9.68 8.32 9 9 C9 9.99 9 10.98 9 12 C8.34 12 7.68 12 7 12 C4 6.25 4 6.25 4 4 C3.34 4 2.68 4 2 4 C2 4.99 2 5.98 2 7 C1.34 7 0.68 7 0 7 C0 4.69 0 2.38 0 0 Z " fill="#E4DAF3" transform="translate(232,33)"/>
<path d="M0 0 C3.3 0 6.6 0 10 0 C10.33 0.66 10.66 1.32 11 2 C11.33 1.67 11.66 1.34 12 1 C13.99958364 0.95919217 16.00045254 0.95745644 18 1 C15.37352812 2.75098126 12.71224618 4.38731308 10 6 C10 5.34 10 4.68 10 4 C7.36 4 4.72 4 2 4 C2 8.29 2 12.58 2 17 C1.67 17 1.34 17 1 17 C0.67 11.39 0.34 5.78 0 0 Z " fill="#F1E7FA" transform="translate(256,31)"/>
<path d="M0 0 C1.1875 2.5625 1.1875 2.5625 2 5 C0.125965 6.874035 -2.86637064 6.25989078 -5.375 6.3125 C-7.11910156 6.36857422 -7.11910156 6.36857422 -8.8984375 6.42578125 C-12 6 -12 6 -13.9140625 3.98046875 C-14.27242187 3.32691406 -14.63078125 2.67335938 -15 2 C-14.21625 2.165 -13.4325 2.33 -12.625 2.5 C-10.11791961 3.0623707 -10.11791961 3.0623707 -8 3 C-8 2.01 -8 1.02 -8 0 C-4.71303767 -0.79953138 -3.28976808 -1.09658936 0 0 Z " fill="#CABAEA" transform="translate(144,63)"/>
<path d="M0 0 C2.908302 2.17771406 4.00366728 3.83028954 4.9296875 7.3359375 C4.9709375 8.2228125 5.0121875 9.1096875 5.0546875 10.0234375 C3.31196812 7.7262165 1.65557598 5.42477021 0.0546875 3.0234375 C-2.49714654 1.81893446 -2.49714654 1.81893446 -4.9453125 1.0234375 C-5.2753125 1.6834375 -5.6053125 2.3434375 -5.9453125 3.0234375 C-6.6259375 2.6521875 -7.3065625 2.2809375 -8.0078125 1.8984375 C-11.88123469 0.74465217 -14.20131107 1.70202523 -17.9453125 3.0234375 C-16.9453125 0.0234375 -16.9453125 0.0234375 -15.0078125 -1.2265625 C-9.95817625 -2.46320811 -4.72152538 -2.37024367 0 0 Z " fill="#ECE1F4" transform="translate(365.9453125,31.9765625)"/>
<path d="M0 0 C-1.37476445 5.19355461 -4.74341593 8.00427491 -9 11 C-12.08506088 12.02835363 -14.2694272 12.13368434 -17.5 12.125 C-18.93859375 12.12886719 -18.93859375 12.12886719 -20.40625 12.1328125 C-23 12 -23 12 -26 11 C-26 10.34 -26 9.68 -26 9 C-24.48019531 9.06960937 -24.48019531 9.06960937 -22.9296875 9.140625 C-21.57815468 9.17816758 -20.22658972 9.21456506 -18.875 9.25 C-18.20984375 9.28351563 -17.5446875 9.31703125 -16.859375 9.3515625 C-11.71824448 9.45236898 -8.93320568 8.24460291 -5 5 C-4.34 4.01 -3.68 3.02 -3 2 C-4.32 1.67 -5.64 1.34 -7 1 C-2.25 0 -2.25 0 0 0 Z " fill="#DED2F3" transform="translate(226,59)"/>
<path d="M0 0 C2.43614139 0.96136984 3.73459297 1.5315764 5.046875 3.84765625 C6.73770821 9.17378085 7.91194145 14.39807394 7 20 C6.34 20.66 5.68 21.32 5 22 C4.896875 21.401875 4.79375 20.80375 4.6875 20.1875 C3.91123545 17.71756736 2.92911079 16.67748765 1 15 C2.32 14.67 3.64 14.34 5 14 C4.65772428 11.02934491 4.65772428 11.02934491 4 8 C3.34 7.67 2.68 7.34 2 7 C2 5.68 2 4.36 2 3 C1.34 3 0.68 3 0 3 C0 2.01 0 1.02 0 0 Z " fill="#AE75EC" transform="translate(54,52)"/>
<path d="M0 0 C9.9360696 0.1914129 9.9360696 0.1914129 14.125 3.375 C16 6 16 6 17 9 C16.34 9.66 15.68 10.32 15 11 C14.773125 10.21625 14.54625 9.4325 14.3125 8.625 C13.22432884 5.81921178 13.22432884 5.81921178 10.5625 4.6875 C7.95926577 3.87043572 7.95926577 3.87043572 5 4 C4.67 4.99 4.34 5.98 4 7 C2.02 7 0.04 7 -2 7 C-0.68 6.01 0.64 5.02 2 4 C1.34 2.68 0.68 1.36 0 0 Z " fill="#EDE2F7" transform="translate(299,31)"/>
<path d="M0 0 C0.33 0 0.66 0 1 0 C1 9.57 1 19.14 1 29 C-1.64 29 -4.28 29 -7 29 C-6 26 -6 26 -3.48168945 24.64526367 C-0.77618253 23.24539808 -0.77618253 23.24539808 -0.34057617 20.5480957 C-0.32486572 19.60023193 -0.30915527 18.65236816 -0.29296875 17.67578125 C-0.26396484 16.64775391 -0.23496094 15.61972656 -0.20507812 14.56054688 C-0.19927734 13.48869141 -0.19347656 12.41683594 -0.1875 11.3125 C-0.16236328 10.22904297 -0.13722656 9.14558594 -0.11132812 8.02929688 C-0.05236785 5.35250017 -0.01615337 2.67734185 0 0 Z " fill="#DCC1E9" transform="translate(415,41)"/>
<path d="M0 0 C1.1875 1.8125 1.1875 1.8125 0.875 4 C0.648125 4.598125 0.42125 5.19625 0.1875 5.8125 C-0.1425 5.8125 -0.4725 5.8125 -0.8125 5.8125 C-1.1425 12.0825 -1.4725 18.3525 -1.8125 24.8125 C-2.1425 24.8125 -2.4725 24.8125 -2.8125 24.8125 C-2.83231934 24.23282471 -2.85213867 23.65314941 -2.87255859 23.0559082 C-2.96822601 20.41184063 -3.07773453 17.7685183 -3.1875 15.125 C-3.2184375 14.21298828 -3.249375 13.30097656 -3.28125 12.36132812 C-3.48026954 7.80046369 -3.66940122 3.95059725 -5.8125 -0.1875 C-2.3125 -1.51508621 -2.3125 -1.51508621 0 0 Z " fill="#DAC2F4" transform="translate(366.8125,41.1875)"/>
<path d="M0 0 C0.99 0.33 1.98 0.66 3 1 C3 3.97 3 6.94 3 10 C1.02 10.33 -0.96 10.66 -3 11 C-2.67 8.03 -2.34 5.06 -2 2 C-1.34 2 -0.68 2 0 2 C0 1.34 0 0.68 0 0 Z " fill="#CB6DEF" transform="translate(5,70)"/>
<path d="M0 0 C1.485 0.99 1.485 0.99 3 2 C5.99829792 2.31892002 5.99829792 2.31892002 9.3125 2.25 C10.42238281 2.25515625 11.53226563 2.2603125 12.67578125 2.265625 C16.0796616 1.99363456 18.82011732 1.21230021 22 0 C19.05025051 3.15318049 17.18011622 4.83864889 12.73046875 5.16796875 C7.73768415 5.20631579 3.68268823 4.9716582 -1 3 C-0.67 2.01 -0.34 1.02 0 0 Z " fill="#DED3F3" transform="translate(129,66)"/>
<path d="M0 0 C3.3 0 6.6 0 10 0 C10.66 1.98 11.32 3.96 12 6 C11.01 6 10.02 6 9 6 C8.67 4.68 8.34 3.36 8 2 C6.02 2 4.04 2 2 2 C2 5.96 2 9.92 2 14 C1.67 14 1.34 14 1 14 C0.67 9.38 0.34 4.76 0 0 Z " fill="#F5F0FC" transform="translate(230,31)"/>
<path d="M0 0 C3.63 0 7.26 0 11 0 C11.33 0.99 11.66 1.98 12 3 C9.11788698 3.96070434 7.30149956 4.10581883 4.3125 4.0625 C3.10013672 4.04896484 3.10013672 4.04896484 1.86328125 4.03515625 C0.94095703 4.01775391 0.94095703 4.01775391 0 4 C-0.33 3.34 -0.66 2.68 -1 2 C-0.67 1.34 -0.34 0.68 0 0 Z " fill="#D6ABF9" transform="translate(386,65)"/>
<path d="M0 0 C0.556875 0.391875 1.11375 0.78375 1.6875 1.1875 C0.6975 1.1875 -0.2925 1.1875 -1.3125 1.1875 C-1.6425 2.1775 -1.9725 3.1675 -2.3125 4.1875 C-3.3025 3.8575 -4.2925 3.5275 -5.3125 3.1875 C-5.3125 3.8475 -5.3125 4.5075 -5.3125 5.1875 C-7 5.9375 -7 5.9375 -9.3125 6.1875 C-11.875 4.375 -11.875 4.375 -14.3125 2.1875 C-15.3025 1.5275 -16.2925 0.8675 -17.3125 0.1875 C-13.59650809 -0.01336443 -12.54041555 0.0355563 -9.3125 2.1875 C-9.3125 2.8475 -9.3125 3.5075 -9.3125 4.1875 C-8.6525 4.1875 -7.9925 4.1875 -7.3125 4.1875 C-7.3125 3.5275 -7.3125 2.8675 -7.3125 2.1875 C-3.09973404 -1.08909574 -3.09973404 -1.08909574 0 0 Z " fill="#EFE7F6" transform="translate(296.3125,31.8125)"/>
<path d="M0 0 C4.53059042 3.06120975 6.35058689 5.79132701 8 11 C8.21952572 13.72498236 8.14428919 16.25850531 8 19 C7.34 19 6.68 19 6 19 C5.85304687 17.91332031 5.85304687 17.91332031 5.703125 16.8046875 C4.77305257 10.79128815 3.70458049 6.81595464 0 2 C0 1.34 0 0.68 0 0 Z " fill="#E8E3F3" transform="translate(149,34)"/>
<path d="M0 0 C1.65 0 3.3 0 5 0 C5 0.66 5 1.32 5 2 C7.31 2 9.62 2 12 2 C12 2.33 12 2.66 12 3 C2.595 3.99 2.595 3.99 -7 5 C-7 3.68 -7 2.36 -7 1 C-4.69 1 -2.38 1 0 1 C0 0.67 0 0.34 0 0 Z " fill="#8A61B8" transform="translate(34,45)"/>
<path d="M0 0 C4.39842734 0.25873102 6.49522922 0.56106889 9.875 3.5 C10.57625 4.325 11.2775 5.15 12 6 C12.33 6.33 12.66 6.66 13 7 C13.07244053 9.01964199 13.08377188 11.04167124 13.0625 13.0625 C13.05347656 14.16722656 13.04445313 15.27195312 13.03515625 16.41015625 C13.02355469 17.26480469 13.01195313 18.11945312 13 19 C12.67 19 12.34 19 12 19 C11.91363281 18.18015625 11.82726562 17.3603125 11.73828125 16.515625 C11.03228221 9.89519538 11.03228221 9.89519538 7.6875 4.375 C5.15910159 3.08140081 2.68717497 1.92131713 0 1 C0 0.67 0 0.34 0 0 Z " fill="#E9E2F4" transform="translate(103,40)"/>
<path d="M0 0 C0.33 0 0.66 0 1 0 C2.5912689 4.873261 3.21192221 8.80790596 3 14 C0.69 14 -1.62 14 -4 14 C-4 13.34 -4 12.68 -4 12 C-2.68 12.33 -1.36 12.66 0 13 C0 8.71 0 4.42 0 0 Z " fill="#CDBEE8" transform="translate(182,55)"/>
<path d="M0 0 C6.15234375 -0.09765625 6.15234375 -0.09765625 8 0 C9 1 9 1 9.09765625 4.37890625 C9.09098369 5.77347077 9.07902532 7.16801743 9.0625 8.5625 C9.05798828 9.27341797 9.05347656 9.98433594 9.04882812 10.71679688 C9.03700864 12.47790013 9.01907263 14.23896036 9 16 C8.67 16 8.34 16 8 16 C8 11.38 8 6.76 8 2 C6.02 2.66 4.04 3.32 2 4 C1.34 2.68 0.68 1.36 0 0 Z " fill="#E8E7E9" transform="translate(161,15)"/>
<path d="M0 0 C0.66 0.66 1.32 1.32 2 2 C1.625 5.625 1.625 5.625 1 9 C-0.65 9 -2.3 9 -4 9 C-2.68 8.67 -1.36 8.34 0 8 C0 6.35 0 4.7 0 3 C-2.97 3.66 -5.94 4.32 -9 5 C-9.33 4.34 -9.66 3.68 -10 3 C-6.51847024 0.67898016 -4.13830989 0.30096799 0 0 Z " fill="#F2EDF7" transform="translate(251,30)"/>
<path d="M0 0 C0.99 0.33 1.98 0.66 3 1 C2.67 2.32 2.34 3.64 2 5 C0.68 5 -0.64 5 -2 5 C-1.34414811 8.60992379 -1.34414811 8.60992379 0 12 C-1.9375 11.3125 -1.9375 11.3125 -4 10 C-5.0625 7.6875 -5.0625 7.6875 -5 5 C-2.5625 2.1875 -2.5625 2.1875 0 0 Z " fill="#C8C5D3" transform="translate(325,14)"/>
<path d="M0 0 C0.66 0 1.32 0 2 0 C2.66 2.31 3.32 4.62 4 7 C1.29120665 8.35439668 -1.00933268 8.06501451 -4 8 C-4.33 7.34 -4.66 6.68 -5 6 C-3.02 5.67 -1.04 5.34 1 5 C0.34 3.68 -0.32 2.36 -1 1 C-0.67 0.67 -0.34 0.34 0 0 Z " fill="#F4F3F7" transform="translate(113,22)"/>
<path d="M0 0 C0.33 0 0.66 0 1 0 C1.04254356 1.99954746 1.04080783 4.00041636 1 6 C0 7 0 7 -1.84765625 7.09765625 C-3.8984375 7.06510417 -5.94921875 7.03255208 -8 7 C-8 6.34 -8 5.68 -8 5 C-7.34 5 -6.68 5 -6 5 C-5.67 4.34 -5.34 3.68 -5 3 C-4.34 3.66 -3.68 4.32 -3 5 C-2.525625 4.175 -2.05125 3.35 -1.5625 2.5 C-1.046875 1.675 -0.53125 0.85 0 0 Z " fill="#CDB0F1" transform="translate(344,62)"/>
<path d="M0 0 C2.45103548 0.98041419 3.76758786 1.6513818 5.25 3.875 C6 6 6 6 6 10 C5.34 10 4.68 10 4 10 C4 9.34 4 8.68 4 8 C3.34 7.67 2.68 7.34 2 7 C2 5.68 2 4.36 2 3 C1.34 3 0.68 3 0 3 C0 2.01 0 1.02 0 0 Z " fill="#A76FF3" transform="translate(54,52)"/>
<path d="M0 0 C0.33 0 0.66 0 1 0 C1 4.29 1 8.58 1 13 C-1.64 13 -4.28 13 -7 13 C-7 12.67 -7 12.34 -7 12 C-5.35 12 -3.7 12 -2 12 C-1.34 8.04 -0.68 4.08 0 0 Z " fill="#D2C3EA" transform="translate(169,56)"/>
<path d="M0 0 C1.65 0 3.3 0 5 0 C4.835 0.928125 4.67 1.85625 4.5 2.8125 C3.92251612 5.95621353 3.92251612 5.95621353 4 9 C1.4375 6.75 1.4375 6.75 -1 4 C-0.8125 1.6875 -0.8125 1.6875 0 0 Z " fill="#D6C9F2" transform="translate(190,55)"/>
<path d="M0 0 C0 0.99 0 1.98 0 3 C-4.22949995 5.41685712 -7.12335991 6.34833144 -12 6 C-11.46375 5.7525 -10.9275 5.505 -10.375 5.25 C-7.81253405 3.95818042 -7.81253405 3.95818042 -4.875 1.875 C-2 0 -2 0 0 0 Z " fill="#D8CAEF" transform="translate(218,59)"/>
<path d="M0 0 C2.69082872 0.17635452 5.32851446 0.61835921 8 1 C8 1.33 8 1.66 8 2 C6.02 2 4.04 2 2 2 C1.34 3.98 0.68 5.96 0 8 C-0.33 8 -0.66 8 -1 8 C-1.04241723 5.66705225 -1.04092937 3.33297433 -1 1 C-0.67 0.67 -0.34 0.34 0 0 Z " fill="#F0EBF9" transform="translate(337,31)"/>
<path d="M0 0 C0.33 0.99 0.66 1.98 1 3 C-0.5625 5.625 -0.5625 5.625 -3 8 C-6.25 8.8125 -6.25 8.8125 -9 9 C-8.2575 8.443125 -7.515 7.88625 -6.75 7.3125 C-4.08292005 5.06972822 -2.08443768 2.77925025 0 0 Z " fill="#DFD6F4" transform="translate(114,60)"/>
<path d="M0 0 C-1.24976756 3.65316671 -1.67098753 4.78065836 -5 7 C-4.34 5.35 -3.68 3.7 -3 2 C-3.61875 2.20625 -4.2375 2.4125 -4.875 2.625 C-5.57625 2.74875 -6.2775 2.8725 -7 3 C-7.66 2.34 -8.32 1.68 -9 1 C-2.25 0 -2.25 0 0 0 Z " fill="#DCD1F0" transform="translate(156,59)"/>
<path d="M0 0 C0.99 0.495 0.99 0.495 2 1 C1.67 1.99 1.34 2.98 1 4 C0.67 2.68 0.34 1.36 0 0 Z M-2 1 C-1.34 1.99 -0.68 2.98 0 4 C-0.33 4.99 -0.66 5.98 -1 7 C-2.32 6.67 -3.64 6.34 -5 6 C-5 5.01 -5 4.02 -5 3 C-4.01 3 -3.02 3 -2 3 C-2 2.34 -2 1.68 -2 1 Z " fill="#DBD0EB" transform="translate(152,41)"/>
<path d="M0 0 C-0.33 0.99 -0.66 1.98 -1 3 C-3.0625 3.6875 -3.0625 3.6875 -5 4 C-5.66 2.68 -6.32 1.36 -7 0 C-4.3333581 -1.33332095 -2.83319697 -0.67102033 0 0 Z M0 -1 C2 0 2 0 2 0 Z " fill="#A974F6" transform="translate(16,36)"/>
<path d="M0 0 C0.99 0.66 1.98 1.32 3 2 C2.67 2.66 2.34 3.32 2 4 C0.125 4.5625 0.125 4.5625 -2 5 C-2.99 5.33 -3.98 5.66 -5 6 C-3.63016497 2.83884224 -3.0109362 2.0072908 0 0 Z " fill="#F5F4F7" transform="translate(89,16)"/>
<path d="M0 0 C2.64 0 5.28 0 8 0 C8 0.33 8 0.66 8 1 C5.69 1 3.38 1 1 1 C0.67 2.32 0.34 3.64 0 5 C-1.32 4.67 -2.64 4.34 -4 4 C-3.34 4 -2.68 4 -2 4 C-1.34 2.68 -0.68 1.36 0 0 Z " fill="#D2C6E5" transform="translate(146,59)"/>
<path d="M0 0 C1.98 0.66 3.96 1.32 6 2 C5.67 2.99 5.34 3.98 5 5 C3.68 4.67 2.36 4.34 1 4 C0.67 2.68 0.34 1.36 0 0 Z " fill="#A770EE" transform="translate(48,49)"/>
<path d="M0 0 C0.66 0 1.32 0 2 0 C1.48792856 3.75519057 0.7824918 6.66688525 -1 10 C-1.02689216 8.52093108 -1.04634621 7.04172517 -1.0625 5.5625 C-1.07410156 4.73878906 -1.08570313 3.91507813 -1.09765625 3.06640625 C-1 1 -1 1 0 0 Z " fill="#DECDF2" transform="translate(337,44)"/>
<path d="M0 0 C3.73884332 2.65654657 5.64978174 4.58110387 7 9 C6.01 9.495 6.01 9.495 5 10 C4.16121545 8.71186658 3.32913217 7.41936744 2.5 6.125 C2.0359375 5.40570313 1.571875 4.68640625 1.09375 3.9453125 C0 2 0 2 0 0 Z " fill="#F4EFFB" transform="translate(149,34)"/>
<path d="M0 0 C2.31 0 4.62 0 7 0 C5.515 1.98 5.515 1.98 4 4 C2.68 3.34 1.36 2.68 0 2 C0 1.34 0 0.68 0 0 Z M0 3 C2 4 2 4 2 4 Z " fill="#9580E3" transform="translate(57,10)"/>
<path d="M0 0 C0.99 0.99 1.98 1.98 3 3 C2.01 3.66 1.02 4.32 0 5 C-0.72965366 7.56282742 -0.72965366 7.56282742 -1 10 C-1.33 10 -1.66 10 -2 10 C-2.25 3.375 -2.25 3.375 0 0 Z " fill="#E7DEF5" transform="translate(192,38)"/>
<path d="M0 0 C1.32 0.33 2.64 0.66 4 1 C3.67 2.32 3.34 3.64 3 5 C2.01 5 1.02 5 0 5 C0 3.35 0 1.7 0 0 Z " fill="#F6EEFD" transform="translate(322,18)"/>
<path d="M0 0 C0 1.65 0 3.3 0 5 C-1.98 5 -3.96 5 -6 5 C-4.90055695 2.80111389 -2.71176711 0 0 0 Z " fill="#D3A8F3" transform="translate(414,64)"/>
<path d="M0 0 C1.65 0 3.3 0 5 0 C4.01 0.495 4.01 0.495 3 1 C2.67 1.99 2.34 2.98 2 4 C1.01 4.33 0.02 4.66 -1 5 C-0.67 3.35 -0.34 1.7 0 0 Z " fill="#D6C9F0" transform="translate(81,54)"/>
<path d="M0 0 C0.99 0.33 1.98 0.66 3 1 C2.67 3.64 2.34 6.28 2 9 C0 7 0 7 -0.125 3.375 C-0.08375 2.26125 -0.0425 1.1475 0 0 Z " fill="#E0DCF4" transform="translate(185,42)"/>
<path d="M0 0 C2.76276177 0.52268466 5.3260876 1.10869587 8 2 C4.62902617 3.49821059 2.79557881 4 -1 4 C-0.67 2.68 -0.34 1.36 0 0 Z " fill="#9C7CD5" transform="translate(38,41)"/>
<path d="M0 0 C1.32 0.33 2.64 0.66 4 1 C3.34 2.32 2.68 3.64 2 5 C0.68 4.67 -0.64 4.34 -2 4 C-1.34 2.68 -0.68 1.36 0 0 Z " fill="#DBC9EA" transform="translate(385,39)"/>
<path d="M0 0 C2.475 0.99 2.475 0.99 5 2 C4.67 2.99 4.34 3.98 4 5 C2 4 0 3 -2 2 C-1.34 1.34 -0.68 0.68 0 0 Z " fill="#F6F1F9" transform="translate(143,31)"/>
<path d="M0 0 C0.33 0 0.66 0 1 0 C1 2.64 1 5.28 1 8 C0.67 8 0.34 8 0 8 C0 5.36 0 2.72 0 0 Z " fill="#CBCBD1" transform="translate(254,32)"/>
<path d="M0 0 C0.66 0 1.32 0 2 0 C2 0.66 2 1.32 2 2 C1.01 1.67 0.02 1.34 -1 1 C-0.67 0.67 -0.34 0.34 0 0 Z " fill="#BFBFC7" transform="translate(151,55)"/>
<path d="M0 0 C0.66 0 1.32 0 2 0 C1.67 0.66 1.34 1.32 1 2 C0.67 1.34 0.34 0.68 0 0 Z " fill="#BFBFDF" transform="translate(403,31)"/>
<path d="" fill="#FFFFFF" transform="translate(0,0)"/>
<path d="" fill="#AAAAAA" transform="translate(0,0)"/>
</svg>
